<?xml version="1.0" encoding="utf-8"?>
<!-- Generator: Adobe Illustrator 24.2.1, SVG Export Plug-In . SVG Version: 6.00 Build 0)  -->
<svg version="1.1" id="Layer_1" xmlns="http://www.w3.org/2000/svg" xmlns:xlink="http://www.w3.org/1999/xlink" x="0px" y="0px"
	 viewBox="0 0 330.89 87.22" style="enable-background:new 0 0 330.89 87.22;" xml:space="preserve">
<style type="text/css">
	.st0{fill:#FFFFFF;}
	.st1{fill:url(#SVGID_1_);}
</style>
<g>
	<g>
		<path class="st0" d="M136.1,67.69c-0.53,1-1.24,1.93-2.12,2.79c-0.88,0.86-1.9,1.59-3.05,2.21c-1.15,0.62-2.4,1.12-3.76,1.5
			c-1.36,0.38-2.71,0.58-4.07,0.58c-3.07,0-5.88-0.58-8.44-1.72s-4.76-2.71-6.59-4.69c-1.83-1.97-3.24-4.33-4.24-7.07
			c-1-2.74-1.5-5.7-1.5-8.89c0-3.18,0.5-6.14,1.5-8.89c1-2.74,2.42-5.1,4.24-7.07c1.83-1.97,4.02-3.54,6.59-4.69
			s5.38-1.72,8.44-1.72c1.36,0,2.71,0.19,4.07,0.58c1.35,0.38,2.61,0.9,3.76,1.55c1.15,0.65,2.17,1.42,3.05,2.3
			c0.88,0.88,1.59,1.8,2.12,2.74V11.81h13.53v61.89H136.1V67.69z M125.93,63.27c1.53,0,2.92-0.29,4.16-0.88
			c1.24-0.59,2.3-1.37,3.18-2.34s1.58-2.12,2.08-3.45c0.5-1.33,0.75-2.73,0.75-4.2c0-1.47-0.25-2.86-0.75-4.16
			c-0.5-1.3-1.19-2.45-2.08-3.45c-0.88-1-1.95-1.8-3.18-2.39c-1.24-0.59-2.62-0.88-4.16-0.88c-1.53,0-2.92,0.29-4.16,0.88
			c-1.24,0.59-2.3,1.39-3.18,2.39c-0.88,1-1.58,2.15-2.08,3.45c-0.5,1.3-0.75,2.68-0.75,4.16c0,1.47,0.25,2.87,0.75,4.2
			c0.5,1.33,1.19,2.48,2.08,3.45s1.94,1.75,3.18,2.34C123.01,62.98,124.4,63.27,125.93,63.27z"/>
		<path class="st0" d="M156.97,16.94c0-2.42,0.82-4.45,2.48-6.1c1.65-1.65,3.71-2.48,6.19-2.48c1.24,0,2.39,0.22,3.45,0.66
			c1.06,0.44,1.99,1.05,2.79,1.81c0.8,0.77,1.41,1.68,1.86,2.74c0.44,1.06,0.66,2.18,0.66,3.36c0,1.18-0.22,2.29-0.66,3.32
			c-0.44,1.03-1.06,1.95-1.86,2.74c-0.79,0.8-1.72,1.42-2.79,1.86c-1.06,0.44-2.21,0.66-3.45,0.66c-1.24,0-2.37-0.22-3.4-0.66
			c-1.03-0.44-1.95-1.06-2.74-1.86c-0.79-0.8-1.41-1.71-1.86-2.74C157.19,19.23,156.97,18.12,156.97,16.94z M158.91,31.09h13.53
			v42.62h-13.53V31.09z"/>
		<path class="st0" d="M181.72,11.81h13.53v61.89h-13.53V11.81z"/>
		<path class="st0" d="M249.19,31.09v42.62h-13.53v-6.01c-0.53,1-1.24,1.93-2.12,2.79c-0.88,0.86-1.9,1.59-3.05,2.21
			s-2.4,1.12-3.76,1.5c-1.36,0.38-2.71,0.58-4.07,0.58c-3.07,0-5.88-0.58-8.44-1.72c-2.56-1.15-4.76-2.71-6.59-4.69
			c-1.83-1.97-3.24-4.33-4.24-7.07c-1-2.74-1.5-5.7-1.5-8.89c0-3.18,0.5-6.14,1.5-8.89c1-2.74,2.42-5.1,4.24-7.07
			c1.83-1.97,4.02-3.54,6.59-4.69c2.56-1.15,5.38-1.72,8.44-1.72c1.36,0,2.71,0.19,4.07,0.58c1.36,0.38,2.61,0.9,3.76,1.55
			c1.15,0.65,2.17,1.42,3.05,2.3c0.88,0.88,1.59,1.8,2.12,2.74v-6.1H249.19z M225.49,63.27c1.53,0,2.92-0.29,4.16-0.88
			c1.24-0.59,2.3-1.37,3.18-2.34c0.88-0.97,1.58-2.12,2.08-3.45c0.5-1.33,0.75-2.73,0.75-4.2c0-1.47-0.25-2.86-0.75-4.16
			c-0.5-1.3-1.19-2.45-2.08-3.45c-0.88-1-1.95-1.8-3.18-2.39c-1.24-0.59-2.62-0.88-4.16-0.88c-1.53,0-2.92,0.29-4.16,0.88
			c-1.24,0.59-2.3,1.39-3.18,2.39c-0.88,1-1.58,2.15-2.08,3.45c-0.5,1.3-0.75,2.68-0.75,4.16c0,1.47,0.25,2.87,0.75,4.2
			c0.5,1.33,1.19,2.48,2.08,3.45c0.88,0.97,1.95,1.75,3.18,2.34C222.57,62.98,223.95,63.27,225.49,63.27z"/>
		<path class="st0" d="M285.08,73.71c-1,0.18-2.25,0.34-3.76,0.49c-1.5,0.15-3.26,0.22-5.26,0.22c-1.59,0-3.27-0.12-5.04-0.35
			c-1.77-0.24-3.4-0.84-4.91-1.81s-2.74-2.48-3.71-4.51c-0.97-2.03-1.46-4.82-1.46-8.36V41.17h-6.72V31.09h6.72V18.44h13.44v12.64
			h9.73v10.08h-9.73v15.18c0,1.59,0.15,2.85,0.44,3.79c0.29,0.94,0.71,1.66,1.24,2.16s1.15,0.84,1.86,1.02
			c0.71,0.18,1.47,0.26,2.3,0.26c0.82,0,1.68,0,2.56,0c0.88,0,1.65-0.07,2.3-0.22V73.71z"/>
		<path class="st0" d="M299.76,55.67c0.06,1.3,0.25,2.52,0.57,3.67c0.32,1.15,0.85,2.15,1.59,3.01c0.74,0.86,1.69,1.53,2.87,2.03
			c1.18,0.5,2.65,0.75,4.42,0.75c2.36,0,4.14-0.47,5.35-1.41c1.21-0.94,2.05-2.09,2.52-3.45h13.26c-0.3,2-0.99,3.89-2.08,5.66
			c-1.09,1.77-2.54,3.32-4.33,4.64c-1.8,1.33-3.92,2.37-6.37,3.14c-2.45,0.77-5.2,1.15-8.27,1.15c-3.71,0-7-0.55-9.86-1.64
			c-2.86-1.09-5.26-2.64-7.21-4.64s-3.42-4.38-4.42-7.12c-1-2.74-1.5-5.76-1.5-9.06c0-3.12,0.49-6.04,1.46-8.75
			c0.97-2.71,2.42-5.08,4.33-7.12c1.92-2.03,4.27-3.64,7.07-4.82c2.8-1.18,6.06-1.77,9.77-1.77c3.36,0,6.38,0.53,9.06,1.59
			c2.68,1.06,4.98,2.48,6.9,4.24c1.92,1.77,3.39,3.83,4.42,6.19c1.03,2.36,1.55,4.83,1.55,7.43c0,0.88-0.02,1.83-0.04,2.83
			c-0.03,1-0.16,2.15-0.4,3.45H299.76z M308.87,38.96c-2.65,0-4.83,0.77-6.54,2.3c-1.71,1.53-2.56,3.74-2.56,6.63h17.86
			c0-2.77-0.81-4.95-2.43-6.54C313.57,39.75,311.46,38.96,308.87,38.96z"/>
	</g>
	<linearGradient id="SVGID_1_" gradientUnits="userSpaceOnUse" x1="21.7" y1="81.3437" x2="65.2706" y2="5.8771">
		<stop  offset="0" style="stop-color:#91C03E"/>
		<stop  offset="1" style="stop-color:#B5C734"/>
	</linearGradient>
	<path class="st1" d="M43.49,0C19.51,0,0,19.56,0,43.61c0,24.05,19.51,43.61,43.49,43.61c23.98,0,43.49-19.56,43.49-43.61
		C86.97,19.56,67.46,0,43.49,0z M43.49,83.73c-22.06,0-40.01-18-40.01-40.12c0-22.12,17.95-40.12,40.01-40.12
		c22.06,0,40.01,18,40.01,40.12C83.49,65.73,65.54,83.73,43.49,83.73z M60.27,57.76c0.61-0.25,1.3-0.33,2.18-0.32
		c0.17,0.02,0.35,0.05,0.52,0.07c0.3,0.09,0.61,0.19,0.91,0.28c1.19,0.51,2.11,1.46,2.59,2.67c1.12,2.82-0.74,5.27-2.68,6.07
		c-0.55,0.23-1.4,0.47-2.21,0.33c-1.91-0.33-3.22-1.26-3.89-2.8C56.45,61.23,58.21,58.61,60.27,57.76z M26.61,29.46
		c-0.52,0.21-1.33,0.47-2.14,0.33c-2.05-0.35-3.37-1.32-4.04-3.03c-1.32-3.36,1.41-6.48,4.6-6.43c0.16,0.01,0.31,0.02,0.46,0.04
		c0.36,0.07,0.72,0.14,1.04,0.26c1.32,0.52,2.27,1.49,2.79,2.8C30.43,26.24,28.51,28.68,26.61,29.46z M24.4,37.43
		c1.46-0.46,2.84-1.11,4.04-1.86c2.73-1.7,5-3.9,6.72-6.61c0.38-0.6,0.8-1.23,1.1-1.89c0.37-0.84,0.75-1.68,1.04-2.6
		c0.24-0.76,0.38-1.55,0.69-2.25c0.7-1.6,2.21-2.57,4.56-2.54c0.2,0.03,0.41,0.06,0.61,0.09c0.32,0.11,0.63,0.21,0.95,0.32
		c1.53,0.67,3.26,2.75,2.68,5.24c-0.11,0.48-0.26,0.96-0.48,1.34c-1.29,2.2-3.04,2-5.41,2.97c-2.22,0.91-4.02,2.12-5.75,3.49
		c-2.16,1.71-4.24,4.55-5.41,7.24c-0.69,1.59-0.97,3.8-1.99,5.09c-1.47,1.86-4.63,2.02-6.57,0.5c-1.81-1.42-2.3-4.47-0.74-6.54
		C21.32,38.21,22.78,37.94,24.4,37.43z M26.93,56.69c1.82-0.54,3.39-1.32,4.37-2.69c2.02-2.81,1.56-7.24,2.53-11.05
		c0.88-3.45,2.68-5.92,5.4-7.54c1.54-0.92,3.36-1.33,5.43-1.75c1.13-0.13,2.27-0.26,3.4-0.39c2.61-0.46,4.33-0.64,6.05-1.99
		c1.15-0.9,1.88-2.35,2.36-3.92c0.34-1.12,0.33-2.56,0.74-3.66c0.64-1.7,2.15-2.74,4.52-2.71c0.22,0.03,0.43,0.06,0.65,0.09
		c0.35,0.12,0.69,0.24,1.04,0.35c1.77,0.78,3.42,3.34,2.4,5.94c-0.43,1.09-1.17,1.99-2.25,2.43c-1.03,0.42-2.43,0.39-3.53,0.72
		c-1.64,0.49-3.18,1.14-4.13,2.32c-0.63,0.79-1.13,1.68-1.47,2.77c-0.79,2.51-0.65,5.8-1.32,8.43c-0.87,3.42-2.49,5.93-5.12,7.58
		c-1.62,1.02-3.52,1.5-5.77,1.95c-0.92,0.11-1.84,0.21-2.75,0.32c-0.68,0.09-1.36,0.17-2.05,0.26c-1.69,0.34-3.15,0.71-4.32,1.54
		c-1.28,0.91-2.12,2.33-2.64,3.99c-0.38,1.21-0.39,2.81-0.86,3.99c-0.67,1.69-3.11,3.21-5.58,2.34c-0.67-0.23-1.2-0.57-1.69-0.97
		c-1.74-1.39-2.07-4.43-0.63-6.39C22.99,56.94,24.71,57.35,26.93,56.69z M44.9,58.01c1.58-0.5,3.03-1.2,4.32-2.01
		c3.19-2,6.18-5.09,7.76-8.67c0.33-0.75,0.65-1.53,0.91-2.34c0.23-0.74,0.37-1.51,0.67-2.19c0.67-1.54,2.17-2.61,4.41-2.58
		c0.24,0.03,0.48,0.06,0.73,0.09c0.48,0.11,0.96,0.28,1.34,0.5c1.78,1.04,3.34,3.86,1.86,6.39c-1.28,2.18-2.96,2.01-5.34,2.95
		c-2.16,0.86-3.94,2.02-5.62,3.34c-2.24,1.77-4.33,4.47-5.54,7.24c-0.31,0.71-0.6,1.46-0.84,2.23c-0.36,1.14-0.58,2.21-1.23,3.03
		c-1.51,1.9-4.61,2.06-6.59,0.5c-1.88-1.48-2.25-4.57-0.65-6.63C41.95,58.75,43.38,58.49,44.9,58.01z"/>
</g>
</svg>
